<svg height="512" viewBox="0 0 64 64" width="512" xmlns="http://www.w3.org/2000/svg"><g id="Layer_13" data-name="Layer 13"><path d="m32 2a24 24 0 0 0 -24 24v24a4 4 0 0 0 4 4l1.272 5.09a3.843 3.843 0 0 0 3.728 2.91 3.843 3.843 0 0 0 3.728-2.91l.893-3.575a2 2 0 0 1 1.941-1.515h16.876a2 2 0 0 1 1.941 1.515l.893 3.575a3.843 3.843 0 0 0 3.728 2.91 3.843 3.843 0 0 0 3.728-2.91l1.272-5.09a4 4 0 0 0 4-4v-24a24 24 0 0 0 -24-24z" fill="#b5b5b5"/><path d="m44.379 55.515.893 3.575a3.832 3.832 0 0 0 2.728 2.764 3.832 3.832 0 0 0 2.728-2.764l1.272-5.09a4 4 0 0 0 4-4v-24a24 24 0 0 0 -23-23.975 24 24 0 0 0 -23 23.975v24a4 4 0 0 0 4 4l1.272 5.09a3.832 3.832 0 0 0 2.728 2.764 3.832 3.832 0 0 0 2.728-2.764l.893-3.575a2 2 0 0 1 1.941-1.515h18.876a2 2 0 0 1 1.941 1.515z" fill="#ccc"/><circle cx="32" cy="22" fill="#474747" r="16"/><path d="m13 42h38a0 0 0 0 1 0 0v4a4 4 0 0 1 -4 4h-30a4 4 0 0 1 -4-4v-4a0 0 0 0 1 0 0z" fill="#474747"/><path d="m16 44a4 4 0 0 0 4 4h30a4.061 4.061 0 0 0 .471-.047 3.959 3.959 0 0 0 .529-1.953v-4h-35z" fill="#686868"/><path d="m28 50v-2a2 2 0 0 1 2-2h3a2 2 0 0 1 2 2v2" fill="#976947"/><g fill="#474747"><path d="m43 37h2v2h-2z"/><path d="m47 37h2v2h-2z"/><path d="m51 37h2v2h-2z"/></g><path d="m23.056 30a12 12 0 1 1 17.886 0" fill="#b5b5b5"/><path d="m33.5 10.1a11.992 11.992 0 0 0 -7.444 19.9h14.887a11.993 11.993 0 0 0 -7.443-19.9z" fill="#ccc"/><path d="m27 30a2 2 0 0 1 -2-2 2 2 0 0 1 2-2h10a2 2 0 0 1 2 2 2 2 0 0 1 -2 2" fill="#442518"/><rect fill="#674025" height="4" rx="2" width="10" x="27" y="22"/><rect fill="#976947" height="4" rx="2" width="6" x="29" y="18"/><path d="m33 46h-3a2 2 0 0 0 -2 2h7a2 2 0 0 0 -2-2z" fill="#c18e59"/></g></svg>